<svg id="Layer_1" data-name="Layer 1" xmlns="http://www.w3.org/2000/svg" viewBox="0 0 350.27 77"><defs><style>.cls-1,.cls-2{fill:#983794;}.cls-1,.cls-3,.cls-4{fill-rule:evenodd;}.cls-3,.cls-5{fill:#8d9092;}.cls-4{fill:#636466;}</style></defs><title>Brightness_Group</title><path class="cls-1" d="M65.37,33.13l.63,4c2.68-4.3,6.27-4.94,9.8-4.94a13.2,13.2,0,0,1,9,3.31L80.88,43a8.59,8.59,0,0,0-6.2-2.26c-4.51,0-8.67,2.4-8.67,8.81V67.88H57.4V33.13Z" transform="translate(-9.2 -18.53)"/><rect class="cls-2" x="78.79" y="14.45" width="8.6" height="34.9"/><path class="cls-1" d="M152.57,18.53V37.85a12.84,12.84,0,0,1,10.86-5.22c9.87,0,14.24,6.7,14.24,16.92V67.88h-8.6V49.62c0-6.35-3.32-9-7.9-9-5.08,0-8.6,4.3-8.6,9.52V67.88H144V18.53Z" transform="translate(-9.2 -18.53)"/><path class="cls-1" d="M196.35,23.32v9.87h9.59v7.4h-9.66v15c0,3.31,1.83,4.93,4.52,4.93A9.81,9.81,0,0,0,205,59.49l2.4,7.33a19.19,19.19,0,0,1-7.12,1.48c-7.54.28-12.47-4-12.47-12.69v-15h-6.49v-7.4h6.49v-9Z" transform="translate(-9.2 -18.53)"/><path class="cls-1" d="M238.64,67.88V49.69c0-5.29-2.89-9.31-8.39-9.31-5.29,0-8.88,4.44-8.88,9.73V67.88h-8.53V33.05h7.68l.57,4.72c3.52-3.45,7-5.22,11.42-5.22,8.18,0,14.74,6.13,14.74,17.06V67.88Z" transform="translate(-9.2 -18.53)"/><path class="cls-1" d="M262,53.57c.57,4.3,4.3,7.4,10.37,7.4,3.17,0,7.33-1.2,9.3-3.24l5.5,5.43c-3.67,3.81-9.66,5.64-14.95,5.64-12,0-19.11-7.4-19.11-18.54,0-10.57,7.19-18.19,18.47-18.19,11.63,0,18.89,7.19,17.55,21.5Zm18.9-7.12h0c-.56-4.51-4.09-6.77-9-6.77-4.66,0-8.46,2.25-9.73,6.77Z" transform="translate(-9.2 -18.53)"/><path class="cls-1" d="M318.44,42.36a11.72,11.72,0,0,0-8.6-3.1c-4.09,0-6.34,1.27-6.34,3.45s2,3.52,6.49,3.81c6.56.42,14.87,1.91,14.87,11.14,0,6.13-5,11.42-14.95,11.42-5.5,0-11-.92-16.08-6.2l4.23-6.13c2.47,2.75,8.11,4.79,12,4.87,3.24.07,6.27-1.62,6.27-4.16s-2-3.38-6.91-3.67C302.86,53.29,295,50.89,295,43s8.32-10.86,14.67-10.86c5.43,0,9.52,1.06,13.54,4.58Z" transform="translate(-9.2 -18.53)"/><path class="cls-1" d="M353.06,42.36a11.72,11.72,0,0,0-8.6-3.1c-4.09,0-6.34,1.27-6.34,3.45s2,3.52,6.49,3.81c6.56.42,14.87,1.91,14.87,11.14,0,6.13-5,11.42-14.95,11.42-5.5,0-11-.92-16.08-6.2l4.23-6.13c2.47,2.75,8.11,4.79,12,4.87,3.24.07,6.27-1.62,6.27-4.16s-2-3.38-6.91-3.67c-6.56-.49-14.38-2.89-14.38-10.79S338,32.14,344.32,32.14c5.43,0,9.52,1.06,13.54,4.58Z" transform="translate(-9.2 -18.53)"/><path class="cls-1" d="M133.67,60.35c3.09-3,4.09-7.39,4.09-10.73A16.07,16.07,0,0,0,136.42,43c-.16-.36-.29-.72-.48-1.07-.07-.15-.16-.29-.24-.44a17.73,17.73,0,0,0-1.32-2.2L138.65,34,132.2,29.1l-3.88,5c-.16-.09-.31-.19-.47-.27a14.21,14.21,0,0,0-7.64-1.8c-9.73,0-17.62,6.77-17.62,17.63s6.77,17.48,17.62,17.48c4.3,0,10.4,2.42,8.2,8.11L136,81.73a16.22,16.22,0,0,0,1.66-7.64c.11-4.22-1.35-8.27-6.59-11.14A17.21,17.21,0,0,0,133.67,60.35Zm-5.91-5.19a8.68,8.68,0,0,1-.89,1.17l-.1.12a9.54,9.54,0,0,1-1.2,1.08l-.18.15c-.23.16-.48.28-.72.42a9.06,9.06,0,0,1-4.45,1.17,9.08,9.08,0,0,1-9-9.15c0-.18,0-.33,0-.51,0-6.06,4.09-9.8,9.09-9.8s9,3.81,9,9.8A10.41,10.41,0,0,1,127.76,55.16Z" transform="translate(-9.2 -18.53)"/><path class="cls-1" d="M49.6,32.85a10,10,0,0,1-6.41,9.52c5.78,1.76,7.89,7.9,7.89,11,0,11-8.25,14.52-18.47,14.52H9.2V18.54H32.61c9.73,0,17,4.37,17,14.31Zm-31.23,5.5H32.61c5.85,0,7.76-2.47,7.76-5.29,0-2.26-1.83-6.06-7.76-6.06H18.36V38.35Zm0,20.87H32.61c3.81,0,9.24-1.27,9.24-5.92,0-4.44-5.43-6.77-9.24-6.77H18.36Z" transform="translate(-9.2 -18.53)"/><path class="cls-3" d="M118.72,81.49a10.35,10.35,0,0,1-8.06-3.86l-3.12,2.74a14.48,14.48,0,0,0,22.34,0l-3.12-2.74A10.34,10.34,0,0,1,118.72,81.49Z" transform="translate(-9.2 -18.53)"/><path class="cls-4" d="M118.72,87.71a16.55,16.55,0,0,1-12.73-6l-3.11,2.73a20.67,20.67,0,0,0,31.67,0l-3.11-2.73A16.55,16.55,0,0,1,118.72,87.71Z" transform="translate(-9.2 -18.53)"/><path class="cls-3" d="M97.42,23.6c0,6.76-10.25,6.76-10.25,0S97.42,16.84,97.42,23.6Z" transform="translate(-9.2 -18.53)"/><path class="cls-5" d="M307.7,78.54a6.06,6.06,0,0,0-4-1.58c-3.39,0-5.45,2.58-5.45,5.83,0,2.6,1.51,5.29,5.45,5.29a5.26,5.26,0,0,0,3.57-1.27V84h-4V81.34H310V88a7.88,7.88,0,0,1-6.31,2.85c-5.94,0-8.36-3.91-8.36-8.07,0-4.45,2.78-8.57,8.36-8.57a8.36,8.36,0,0,1,5.88,2.42Z" transform="translate(-9.2 -18.53)"/><path class="cls-5" d="M314.58,79.35l.2,1.29a3.29,3.29,0,0,1,3.14-1.58,4.23,4.23,0,0,1,2.87,1.06l-1.24,2.4a2.76,2.76,0,0,0-2-.72,2.57,2.57,0,0,0-2.78,2.83V90.5H312V79.35Z" transform="translate(-9.2 -18.53)"/><path class="cls-5" d="M332.53,85.12a5.8,5.8,0,1,1-5.83-5.81A5.63,5.63,0,0,1,332.53,85.12Zm-8.84,0a3,3,0,1,0,6.06,0,3.15,3.15,0,0,0-3-3.3A3.06,3.06,0,0,0,323.69,85.12Z" transform="translate(-9.2 -18.53)"/><path class="cls-5" d="M336.69,79.73v5.83c0,1.7.93,3,2.69,3a2.93,2.93,0,0,0,2.85-3.12v-5.7H345V90.9h-2.46l-.18-1.51a5,5,0,0,1-3.77,1.67c-2.67,0-4.61-2-4.61-5.47V79.73Z" transform="translate(-9.2 -18.53)"/><path class="cls-5" d="M346.77,95.53V79.73h2.58l.18,1.54a4.43,4.43,0,0,1,3.62-1.79,5.57,5.57,0,0,1,5.72,5.83c0,3.25-2.06,5.83-5.63,5.83-1.18,0-2.92-.36-3.71-1.58v6Zm9.33-10.22a3.16,3.16,0,1,0-6.33,0,3.16,3.16,0,1,0,6.33,0Z" transform="translate(-9.2 -18.53)"/></svg>