<svg class="w-full h-auto md:w-auto md:h-16" viewBox="0 0 44 51" xmlns="http://www.w3.org/2000/svg"><g fill-rule="nonzero" fill="none"><path d="M41.76 33.247C40.946 34.48 40.326 36 38.667 36c-2.791 0-2.942-4.304-5.735-4.304S30.29 36 27.498 36c-2.792 0-2.943-4.304-5.736-4.304C18.97 31.696 19.12 36 16.33 36c-2.792 0-2.943-4.304-5.735-4.304C7.8 31.696 7.95 36 5.16 36c-.877 0-1.494-.425-2.013-1.008C1.149 31.516 0 27.442 0 23.087 0 10.337 9.85 0 22 0s22 10.336 22 23.087c0 3.646-.805 7.094-2.24 10.16z" fill="#FB70A9"></path><path d="M13.214 30.968v9.562a3.107 3.107 0 01-6.214 0V28.986C7.58 27.922 8.242 27 9.437 27c1.944 0 2.623 2.442 3.777 3.968zm11.738.498v15.122a3.452 3.452 0 11-6.904 0V29.473c.65-1.254 1.32-2.473 2.694-2.473 2.174 0 2.766 3.056 4.21 4.466zM36 31.188v10.978a3.107 3.107 0 11-6.214 0V28.673c.54-.926 1.185-1.673 2.26-1.673 2.041 0 2.688 2.692 3.954 4.188z" fill="#4E56A6"></path><path d="M13.214 33.898c-.55-.674-1.203-1.175-2.147-1.175-2.24 0-2.652 2.824-4.067 4.097V24.64a3.107 3.107 0 116.214 0v9.258zm11.738.218c-.587-.782-1.275-1.393-2.317-1.393-2.493 0-2.722 3.495-4.587 4.461v-5.386a3.452 3.452 0 016.904 0v2.318zM36 33.512c-.478-.471-1.045-.79-1.798-.79-2.414 0-2.704 3.28-4.416 4.364V26.153a3.107 3.107 0 116.214 0v7.359z" fill="#000" fill-opacity=".299"></path><path d="M41.76 33.247C40.946 34.48 40.326 36 38.667 36c-2.791 0-2.942-4.304-5.735-4.304S30.29 36 27.498 36c-2.792 0-2.943-4.304-5.736-4.304C18.97 31.696 19.12 36 16.33 36c-2.792 0-2.943-4.304-5.735-4.304C7.8 31.696 7.95 36 5.16 36c-.877 0-1.494-.425-2.013-1.008C1.149 31.516 0 27.442 0 23.087 0 10.337 9.85 0 22 0s22 10.336 22 23.087c0 3.646-.805 7.094-2.24 10.16z" fill="#FB70A9"></path><path d="M37 35.54c5.765-8.576 5.914-18.09.447-28.54A23.028 23.028 0 0144 23.136a23.07 23.07 0 01-2.321 10.121C40.833 34.486 40.19 36 38.472 36A2.506 2.506 0 0137 35.54z" fill="#E24CA6"></path><g><path d="M20.82 28.846c7.651 0 10.872-4.438 10.872-10.741S26.825 6 20.821 6C14.816 6 9.949 11.802 9.949 18.105c0 6.303 3.221 10.741 10.872 10.741z" fill="#FFF"></path><g transform="translate(13.82 9.462)"><ellipse fill="#030776" cx="4.077" cy="4.5" rx="4.077" ry="4.5"></ellipse><ellipse fill="#FFF" cx="3.397" cy="3.462" rx="2.038" ry="2.077"></ellipse></g></g></g></svg>